<?xml version="1.0" encoding="UTF-8"?>
<svg xmlns="http://www.w3.org/2000/svg"
     xmlns:xlink="http://www.w3.org/1999/xlink"
     xmlns:gadfly="http://www.gadflyjl.org/ns"
     version="1.2"
     width="141.42mm" height="100mm" viewBox="0 0 141.42 100"
     stroke="none"
     fill="#000000"
     stroke-width="0.3"
     font-size="3.88"
>
<g class="plotroot yscalable" id="img-7895d456-1">
  <g font-size="3.88" font-family="'PT Sans','Helvetica Neue','Helvetica',sans-serif" fill="#564A55" stroke="#000000" stroke-opacity="0.000" id="img-7895d456-2">
    <text x="78.03" y="88.39" text-anchor="middle" dy="0.6em">CacheSize</text>
  </g>
  <g class="guide xlabels" font-size="2.82" font-family="'PT Sans Caption','Helvetica Neue','Helvetica',sans-serif" fill="#6C606B" id="img-7895d456-3">
    <text x="48.83" y="81.72" text-anchor="middle" dy="0.6em">[1.0]</text>
    <text x="107.22" y="81.72" text-anchor="middle" dy="0.6em">[100.0]</text>
  </g>
<g clip-path="url(#img-7895d456-4)">
  <g id="img-7895d456-5">
    <g pointer-events="visible" opacity="1" fill="#000000" fill-opacity="0.000" stroke="#000000" stroke-opacity="0.000" class="guide background" id="img-7895d456-6">
      <rect x="19.63" y="5" width="116.79" height="75.72"/>
    </g>
    <g class="guide ygridlines xfixed" stroke-dasharray="0.5,0.5" stroke-width="0.2" stroke="#D0D0E0" id="img-7895d456-7">
      <path fill="none" d="M19.63,78.71 L 136.42 78.71"/>
      <path fill="none" d="M19.63,42.86 L 136.42 42.86"/>
      <path fill="none" d="M19.63,7 L 136.42 7"/>
    </g>
    <g class="guide xgridlines yfixed" stroke-dasharray="0.5,0.5" stroke-width="0.2" stroke="#D0D0E0" id="img-7895d456-8">
      <path fill="none" d="M78.03,5 L 78.03 80.72"/>
    </g>
    <g class="plotpanel" id="img-7895d456-9">
      <g class="geometry" stroke-width="0.3" id="img-7895d456-10">
        <g fill="#00BFFF" stroke="#FFFFFF" id="img-7895d456-11">
          <use xlink:href="#img-7895d456-12" x="107.22" y="14.97" fill="#00BFFF" stroke="#00BFFF"/>
        </g>
        <rect x="20.13" y="39.25" width="57.39" height="27.46" fill="#00BFFF" stroke="#00BFFF"/>
        <rect x="78.53" y="52.68" width="57.39" height="22.24" fill="#00BFFF" stroke="#00BFFF"/>
        <path fill="none" d="M29.7,12.52 L 67.96 12.52" stroke="#00BFFF"/>
        <path fill="none" d="M88.09,26.56 L 126.36 26.56" stroke="#00BFFF"/>
        <path fill="none" d="M29.7,78.69 L 67.96 78.69" stroke="#00BFFF"/>
        <path fill="none" d="M88.09,78.39 L 126.36 78.39" stroke="#00BFFF"/>
        <path fill="none" d="M48.83,39.25 L 48.83 12.52" stroke="#00BFFF"/>
        <path fill="none" d="M107.22,52.68 L 107.22 26.56" stroke="#00BFFF"/>
        <path fill="none" d="M48.83,66.71 L 48.83 78.69" stroke="#00BFFF"/>
        <path fill="none" d="M107.22,74.92 L 107.22 78.39" stroke="#00BFFF"/>
        <g stroke-width="0.6" id="img-7895d456-13">
          <path fill="none" d="M29.7,54.81 L 67.96 54.81" stroke="#B5FFFF"/>
          <path fill="none" d="M88.09,54.81 L 126.36 54.81" stroke="#B5FFFF"/>
        </g>
      </g>
    </g>
  </g>
</g>
  <g class="guide ylabels" font-size="2.82" font-family="'PT Sans Caption','Helvetica Neue','Helvetica',sans-serif" fill="#6C606B" id="img-7895d456-14">
    <text x="18.63" y="78.71" text-anchor="end" dy="0.35em">0</text>
    <text x="18.63" y="42.86" text-anchor="end" dy="0.35em">50</text>
    <text x="18.63" y="7" text-anchor="end" dy="0.35em">100</text>
  </g>
  <g font-size="3.88" font-family="'PT Sans','Helvetica Neue','Helvetica',sans-serif" fill="#564A55" stroke="#000000" stroke-opacity="0.000" id="img-7895d456-15">
    <text x="8.81" y="40.86" text-anchor="middle" dy="0.35em" transform="rotate(-90, 8.81, 42.86)">PercGen</text>
  </g>
</g>
<defs>
  <clipPath id="img-7895d456-4">
  <path d="M19.63,5 L 136.42 5 136.42 80.72 19.63 80.72" />
</clipPath>
  <g id="img-7895d456-12">
    <circle cx="0" cy="0" r="0.9"/>
  </g>
</defs>
</svg>
